<svg xmlns="http://www.w3.org/2000/svg" xmlns:xlink="http://www.w3.org/1999/xlink" width="780.008" height="487.234" viewBox="0 0 780.008 487.234"><defs><linearGradient id="a" x1="8.032" y1="0.5" x2="9.032" y2="0.5" gradientUnits="objectBoundingBox"><stop offset="0" stop-color="#d3daed"></stop><stop offset="0.553" stop-color="#b0bce0"></stop><stop offset="1" stop-color="#99a7d8"></stop></linearGradient><linearGradient id="b" x1="-9.455" y1="0.5" x2="-8.455" y2="0.5" xlink:href="#a"></linearGradient><linearGradient id="c" x1="-6.485" y1="0.5" x2="-5.486" y2="0.5" xlink:href="#a"></linearGradient><linearGradient id="d" x1="-6.006" y1="0.5" x2="-5.006" y2="0.5" xlink:href="#a"></linearGradient><linearGradient id="e" x1="0" y1="0.5" x2="1" y2="0.5" xlink:href="#a"></linearGradient><linearGradient id="f" x1="-0.003" y1="0.501" x2="1.003" y2="0.501" gradientUnits="objectBoundingBox"><stop offset="0.15" stop-color="#ff9800"></stop><stop offset="1" stop-color="#ffc107"></stop></linearGradient><linearGradient id="g" x1="0.003" y1="0.498" x2="1.007" y2="0.498" xlink:href="#f"></linearGradient><linearGradient id="h" x1="0" y1="0.501" x2="1.001" y2="0.501" xlink:href="#f"></linearGradient><linearGradient id="i" x1="0" y1="0.5" x2="1" y2="0.5" xlink:href="#a"></linearGradient><linearGradient id="j" x1="0" y1="0.5" x2="1" y2="0.5" xlink:href="#a"></linearGradient><linearGradient id="k" x1="0" y1="0.5" x2="1" y2="0.5" xlink:href="#a"></linearGradient><linearGradient id="l" x1="0" y1="0.5" x2="1" y2="0.5" xlink:href="#a"></linearGradient><linearGradient id="m" x1="0" y1="0.5" x2="1" y2="0.5" xlink:href="#a"></linearGradient></defs><path d="M448.856,509.034,209.864,367.987c-12.809-7.392,49.116-41.806,62.8-49.649l7.392-37.716c13.679-7.843-19.9-38.192-7.087-30.794L585.889,430.5c12.809,7.392,12.1,19.744-1.581,27.587l-87.486,50.144C483.13,516.064,461.659,516.426,448.856,509.034Z" transform="translate(-75.955 -90.752)" fill="#a7bcf5" opacity="0.39"></path><path d="M742.5,301.117v-.032c0-.1,0-.21-.006-.311s-.006-.21-.013-.311a467.272,467.272,0,0,1-.013-.089c-.006-.076-.013-.146-.019-.222-.013-.1-.019-.2-.032-.311-.006-.051-.013-.1-.019-.146,0-.019-.006-.044-.006-.064s-.006-.064-.013-.1c-.019-.1-.032-.2-.051-.311s-.038-.2-.057-.292v-.019c-.025-.1-.045-.21-.07-.311s-.051-.2-.083-.311c-.006-.025-.019-.057-.025-.083l-.019-.057c-.019-.057-.032-.108-.051-.165-.032-.1-.063-.2-.1-.292-.025-.076-.051-.146-.076-.222-.006-.013-.006-.019-.013-.032s-.006-.025-.013-.032c-.032-.1-.07-.184-.1-.279s-.07-.178-.108-.267a.9.9,0,0,0-.051-.114c-.006-.019-.013-.032-.019-.051s-.032-.07-.044-.1c-.038-.089-.083-.184-.127-.273s-.089-.184-.133-.273c-.006-.006-.006-.019-.013-.025l-.019-.038c-.051-.1-.1-.19-.146-.286s-.1-.171-.146-.26c-.032-.057-.063-.114-.1-.171a.526.526,0,0,1-.044-.083c-.083-.14-.171-.279-.26-.413a1.519,1.519,0,0,1-.083-.133c-.006-.006-.006-.013-.013-.019-.114-.171-.235-.343-.356-.508a.492.492,0,0,1-.051-.07c-.019-.019-.032-.044-.051-.064-.044-.057-.089-.114-.127-.171l-.222-.279c-.032-.032-.057-.07-.089-.1a.363.363,0,0,0-.044-.051c-.025-.032-.057-.064-.083-.1l-.229-.248c-.057-.064-.114-.121-.178-.184-.013-.013-.019-.025-.032-.032l-.032-.032-.248-.248-.267-.248a.006.006,0,0,1-.006-.006l-.006-.006c-.083-.076-.171-.152-.26-.229s-.184-.152-.279-.229a.136.136,0,0,1-.032-.025c-.013-.013-.025-.019-.038-.032-.07-.051-.133-.108-.2-.159-.1-.07-.19-.133-.286-.2a.36.36,0,0,0-.083-.051c-.006-.006-.019-.013-.025-.019a.006.006,0,0,1-.006-.006l-.171-.114c-.1-.057-.19-.121-.286-.178-.025-.013-1.531-.883-1.55-.9l-8.5,4.6s2.032,1.181,2.128,1.238.19.121.286.184.19.133.286.2.19.14.279.216l.114.1c.146.121.292.241.432.368h0c.146.127.286.267.419.4a.383.383,0,0,1,.051.051c.133.133.26.267.387.406.019.019.038.044.057.064.121.14.241.279.356.419.019.025.044.051.064.076.114.146.229.286.337.438.057.076.108.152.165.235s.133.19.2.286c.076.114.146.222.216.337.044.076.1.146.14.222s.076.133.114.2c.063.114.133.235.2.356.019.032.032.064.051.1l.248.5a.3.3,0,0,1,.019.044q.124.267.229.533l.019.057c.07.171.133.349.2.527a.312.312,0,0,0,.025.07c.057.171.114.349.165.521a.359.359,0,0,0,.025.076c.051.171.1.349.14.521.006.025.013.051.019.083.038.178.076.349.108.527.006.025.006.051.013.076.032.178.057.349.076.527,0,.025.006.044.006.07.019.178.038.356.044.527.006.089.013.178.013.267s.006.21.006.311,0,.216-.006.324l-.019.324c-.013.114-.019.235-.038.349l-.038.267s-.032.178-.076.483L704.737,489.221c-.14.864-3.486,6.389-2.731,5.951l8.04-6.814a9.347,9.347,0,0,0,3.188-5.646L742.065,304.5l.349-2.159.038-.267c.013-.076.019-.152.025-.229V301.8c0-.025.006-.051.006-.076q.009-.162.019-.324c.006-.089.006-.171.006-.26C742.5,301.142,742.5,301.129,742.5,301.117Z" transform="translate(-256.15 -105.88)" fill="#99a8e0"></path><g transform="translate(152.158 25.938)"><path d="M559.847,204.8c3.829,2.21,6.4,7.29,5.741,11.355L535.772,400.418c-.654,4.064-4.293,5.563-8.122,3.353L245.442,240.834c-3.829-2.21-6.4-7.29-5.741-11.355L269.51,45.217c.661-4.064,4.293-5.563,8.122-3.353Z" transform="translate(-239.597 -40.844)" fill="#fff"></path></g><path d="M747.447,265.9v-.032c0-.1,0-.21-.006-.311s-.006-.21-.013-.311a.108.108,0,0,0-.006-.044.108.108,0,0,0-.006-.044c-.006-.076-.013-.146-.019-.222-.013-.1-.019-.2-.032-.311-.006-.051-.013-.1-.019-.146,0-.019-.006-.044-.006-.064s-.006-.064-.013-.1c-.019-.1-.032-.2-.051-.311s-.038-.2-.057-.292v-.019c-.026-.1-.045-.21-.07-.311s-.051-.2-.083-.311c-.006-.025-.019-.057-.025-.083l-.019-.057c-.019-.057-.032-.108-.051-.165-.032-.1-.063-.2-.1-.292-.025-.076-.051-.146-.076-.222-.006-.013-.006-.019-.013-.032s-.006-.025-.013-.032c-.032-.1-.07-.184-.1-.279s-.07-.178-.108-.267a.918.918,0,0,0-.051-.114c-.006-.019-.013-.032-.019-.051s-.032-.07-.044-.1c-.038-.089-.083-.184-.127-.273s-.089-.184-.133-.273c-.006-.006-.006-.019-.013-.025l-.019-.038c-.051-.1-.1-.191-.146-.286s-.1-.171-.146-.26c-.032-.057-.063-.114-.1-.171a.535.535,0,0,1-.045-.083c-.083-.14-.172-.279-.26-.413a1.526,1.526,0,0,1-.083-.133c-.006-.006-.006-.013-.013-.019-.114-.171-.235-.343-.356-.508a.486.486,0,0,1-.051-.07c-.019-.019-.032-.044-.051-.064-.044-.057-.089-.114-.127-.171l-.222-.279c-.032-.032-.057-.07-.089-.1a.366.366,0,0,0-.045-.051c-.025-.032-.057-.064-.083-.1l-.229-.248c-.057-.064-.114-.121-.178-.184-.013-.013-.019-.025-.032-.032l-.032-.032-.248-.248-.267-.248a.006.006,0,0,1-.006-.006l-.006-.006c-.083-.076-.172-.152-.26-.229s-.184-.152-.279-.229a.138.138,0,0,1-.032-.025c-.013-.013-.025-.019-.038-.032-.07-.051-.133-.108-.2-.159-.1-.07-.191-.133-.286-.2a.359.359,0,0,0-.083-.051c-.006-.006-.019-.013-.025-.019a.006.006,0,0,1-.006-.006l-.172-.114c-.1-.057-.191-.121-.286-.178-.019-.013-6.814-3.931-6.833-3.944l-8.389,5.068s7.2,3.766,7.3,3.829.191.121.286.184.191.133.286.2.19.14.279.216l.114.1c.146.121.292.241.432.368h0c.146.127.286.267.419.4a.383.383,0,0,1,.051.051c.133.133.26.267.387.406.019.019.038.044.057.064.121.14.241.279.355.419.019.025.045.051.064.076.114.146.229.286.337.438.057.076.108.152.165.235s.133.191.2.286c.076.114.146.222.216.337.044.076.1.146.14.222s.076.133.114.2c.063.114.133.235.2.356.019.032.032.064.051.1l.248.5a.309.309,0,0,1,.019.044q.124.267.229.533l.019.057c.07.171.133.349.2.527a.3.3,0,0,0,.025.07c.057.171.114.349.165.521a.358.358,0,0,0,.025.076c.051.171.1.349.14.521.006.025.013.051.019.083.038.178.076.349.108.527.006.025.006.051.013.076.032.178.057.349.076.527,0,.025.006.044.006.07.019.178.038.356.045.527.006.089.013.178.013.267s.006.21.006.311,0,.216-.006.324-.013.216-.019.324-.019.235-.038.349l-.038.267s-.032.178-.076.483l-29.4,181.621c-.14.864-3.486,6.389-2.731,5.951l8.04-6.814a9.347,9.347,0,0,0,3.188-5.646L747,269.3l.349-2.159.038-.267c.013-.076.019-.152.025-.229V266.6c0-.025.006-.051.006-.076l.019-.324c.006-.089.006-.171.006-.26A.048.048,0,0,0,747.447,265.9Z" transform="translate(-257.949 -91.918)" fill="#99a8e0"></path><path d="M443.621,535.092l-.1-13.59-10.993,9.291-2.362-5.449L154.091,365.956c-3.328-1.918-9.932-1.677-13.774.54l-119.6,68.618V433.2L2.553,442.03,0,441l.343,8.383a3.877,3.877,0,0,0,2.108,3.232l287.295,166.3c3.328,1.918,9.189,1.9,13.031-.318l137.662-79.37c2.1-1.213,3.169-2.712,3.169-4.191Z" transform="translate(0 -133.08)" fill="#99a8e0"></path><path d="M289.629,601.108,2.341,435.243c-3.328-1.918-2.9-5.3.934-7.519l137.662-79.478c3.842-2.216,9.7-2.458,13.025-.54L441.25,513.571c3.328,1.918,2.9,5.3-.934,7.519L302.654,600.568C298.812,602.784,292.95,603.026,289.629,601.108Z" transform="translate(-0.035 -126.42)" fill="#d9e7ff"></path><g transform="translate(72.502 233.818)"><path d="M237.517,386.376a2.2,2.2,0,0,1-1.9-.222l-17.439-10.066c-.629-.362-.8-.857-.381-1.1l11.552-6.674a2.2,2.2,0,0,1,1.9.222L248.687,378.6c.629.362.8.851.381,1.092Z" transform="translate(-151.902 -368.183)" fill="#a7c1f5"></path><path d="M269.376,433.7a2.2,2.2,0,0,1-1.905-.222l-17.439-10.066c-.629-.362-.794-.851-.375-1.092l11.558-6.674a2.2,2.2,0,0,1,1.886.222l17.439,10.066c.635.368.8.857.394,1.092Z" transform="translate(-163.528 -385.458)" fill="#a7c1f5"></path><path d="M253.266,453.348a2.191,2.191,0,0,1-1.892-.222L233.929,443.06c-.616-.356-.807-.851-.387-1.092l11.558-6.681a2.237,2.237,0,0,1,1.892.222l17.445,10.066c.629.362.8.857.387,1.092Z" transform="translate(-157.649 -392.626)" fill="#a7c1f5"></path><path d="M209.693,457.143a2.194,2.194,0,0,1-1.886-.216l-17.445-10.066c-.622-.356-.794-.851-.381-1.092l11.558-6.674a2.208,2.208,0,0,1,1.892.216l17.445,10.066c.622.362.794.851.375,1.092Z" transform="translate(-141.752 -394.014)" fill="#a7c1f5"></path><path d="M134.109,445.453a2.191,2.191,0,0,1-1.892-.222l-17.439-10.066c-.629-.362-.8-.851-.387-1.092l13.571-7.837a2.216,2.216,0,0,1,1.892.222l17.439,10.066c.629.362.794.857.387,1.092Z" transform="translate(-114.166 -389.322)" fill="#a7c1f5"></path><path d="M177.977,470.764a2.829,2.829,0,0,1-2.254-.425l-22.849-13.184c-.819-.47-1.156-1.054-.737-1.3l13.571-7.837a2.868,2.868,0,0,1,2.248.425L190.8,461.632c.826.476,1.149,1.067.743,1.3Z" transform="translate(-127.957 -397.283)" fill="#a7c1f5"></path><path d="M417.9,612.244a2.135,2.135,0,0,1-1.765-.292l-17.426-10.059c-.635-.368-.87-.826-.527-1.029l5.017-2.9a2.183,2.183,0,0,1,1.778.3L422.4,608.332c.629.362.857.819.514,1.023Z" transform="translate(-217.757 -452.008)" fill="#a7c1f5"></path><path d="M454.588,633.974a2.134,2.134,0,0,1-1.765-.292L435.4,623.623c-.635-.368-.87-.826-.527-1.029l5.017-2.9a2.2,2.2,0,0,1,1.785.3L459.1,630.062c.629.362.857.819.508,1.022Z" transform="translate(-231.146 -459.938)" fill="#a7c1f5"></path><path d="M493.493,655.976a2.17,2.17,0,0,1-1.746-.311L474.314,645.6c-.622-.362-.876-.819-.54-1.01l4.833-2.794a2.184,2.184,0,0,1,1.753.311l17.432,10.059c.629.362.87.819.54,1.01Z" transform="translate(-245.347 -468.006)" fill="#a7c1f5"></path><path d="M469.573,625.656a2.17,2.17,0,0,1-1.746-.311l-17.432-10.059c-.622-.362-.876-.819-.54-1.01l4.833-2.794a2.184,2.184,0,0,1,1.753.311l17.432,10.059c.629.362.87.819.54,1.01Z" transform="translate(-236.618 -456.941)" fill="#a7c1f5"></path><path d="M315.182,549.925a2.2,2.2,0,0,1-1.905-.229L199.779,484.2c-.616-.356-.807-.857-.387-1.1l13.571-7.837a2.251,2.251,0,0,1,1.9.222l113.5,65.5c.629.362.8.864.394,1.1Z" transform="translate(-145.186 -407.216)" fill="#a7c1f5"></path><path d="M180.209,472.286a.283.283,0,0,1-.184-.051l-13.33-7.7c-.07-.044-.114-.089-.089-.1l.845-.489a.283.283,0,0,1,.184.051l13.33,7.7c.076.044.114.089.089.108Z" transform="translate(-133.301 -403.13)" fill="#a7c1f5"></path><path d="M130.874,441.5a.116.116,0,0,1-.1-.006l-5.658-3.264c-.032-.019-.038-.044-.013-.057l.845-.489a.116.116,0,0,1,.1.006l5.658,3.264c.032.019.038.044.013.057Z" transform="translate(-118.151 -393.544)" fill="#a7c1f5"></path><path d="M247.338,478.85a2.207,2.207,0,0,1-1.9-.222L228,468.562c-.616-.356-.8-.857-.387-1.092l11.558-6.674a2.225,2.225,0,0,1,1.9.222l17.439,10.066c.635.362.8.857.387,1.1Z" transform="translate(-155.487 -401.934)" fill="#a7c1f5"></path><path d="M285.164,500.669a2.193,2.193,0,0,1-1.886-.216l-17.439-10.066c-.622-.362-.8-.857-.387-1.1l11.558-6.675a2.2,2.2,0,0,1,1.9.222L296.347,492.9c.616.356.794.851.375,1.092Z" transform="translate(-169.295 -409.896)" fill="#a7c1f5"></path><path d="M322.973,522.493a2.195,2.195,0,0,1-1.886-.216l-17.445-10.066c-.622-.362-.794-.851-.381-1.092l11.558-6.674a2.208,2.208,0,0,1,1.892.216l17.445,10.066c.622.362.794.851.375,1.092Z" transform="translate(-183.092 -417.862)" fill="#a7c1f5"></path><path d="M360.786,544.319a2.192,2.192,0,0,1-1.892-.222l-17.445-10.066c-.629-.362-.8-.857-.387-1.092l11.558-6.674a2.206,2.206,0,0,1,1.9.222l17.445,10.066c.629.362.794.851.381,1.092Z" transform="translate(-196.887 -425.826)" fill="#a7c1f5"></path><path d="M398.606,566.139a2.2,2.2,0,0,1-1.905-.229l-17.439-10.059c-.622-.362-.794-.851-.381-1.092l11.558-6.675a2.209,2.209,0,0,1,1.892.216L409.77,558.36c.629.362.807.864.394,1.1Z" transform="translate(-210.689 -433.789)" fill="#a7c1f5"></path><path d="M436.43,587.949a2.191,2.191,0,0,1-1.893-.222L417.1,577.661c-.629-.362-.8-.857-.387-1.092l11.558-6.675a2.206,2.206,0,0,1,1.9.222l17.439,10.066c.629.362.794.857.381,1.1Z" transform="translate(-224.495 -441.748)" fill="#a7c1f5"></path><path d="M504.326,627.136a2.192,2.192,0,0,1-1.892-.222l-47.515-27.422c-.629-.362-.8-.857-.387-1.092l11.558-6.674a2.206,2.206,0,0,1,1.9.222L515.5,619.369c.629.362.794.857.381,1.092Z" transform="translate(-238.297 -449.715)" fill="#a7c1f5"></path><path d="M290.91,475.051a2.174,2.174,0,0,1-1.886-.216l-17.445-10.066c-.629-.362-.8-.851-.381-1.092L282.756,457a2.2,2.2,0,0,1,1.886.222l17.445,10.066c.629.362.794.851.381,1.086Z" transform="translate(-171.39 -400.548)" fill="#a7c1f5"></path><path d="M328.73,496.877a2.176,2.176,0,0,1-1.886-.222l-17.451-10.072c-.622-.356-.794-.845-.375-1.086l11.558-6.681a2.2,2.2,0,0,1,1.88.216L339.907,489.1c.622.356.794.851.387,1.086Z" transform="translate(-185.192 -408.511)" fill="#a7c1f5"></path><path d="M366.547,518.7a2.211,2.211,0,0,1-1.892-.222l-17.439-10.066c-.616-.356-.813-.851-.394-1.092l11.558-6.681a2.24,2.24,0,0,1,1.892.229l17.439,10.066c.622.362.8.857.387,1.092Z" transform="translate(-198.991 -416.476)" fill="#a7c1f5"></path><path d="M404.358,540.517a2.191,2.191,0,0,1-1.892-.222l-17.439-10.066c-.629-.362-.806-.851-.387-1.092l11.558-6.681a2.216,2.216,0,0,1,1.892.222l17.439,10.066c.629.362.794.851.387,1.092Z" transform="translate(-212.79 -424.437)" fill="#a7c1f5"></path><path d="M442.187,562.337a2.191,2.191,0,0,1-1.892-.222l-17.445-10.066c-.629-.362-.8-.845-.381-1.092l11.558-6.681a2.2,2.2,0,0,1,1.886.222l17.445,10.066c.622.362.794.851.387,1.092Z" transform="translate(-226.594 -432.4)" fill="#a7c1f5"></path><path d="M479.992,584.147a2.175,2.175,0,0,1-1.886-.222l-17.432-10.059c-.635-.368-.813-.851-.394-1.1l11.558-6.681a2.2,2.2,0,0,1,1.893.229l17.432,10.059c.622.362.794.851.387,1.086Z" transform="translate(-240.394 -440.359)" fill="#a7c1f5"></path><path d="M517.814,605.971a2.176,2.176,0,0,1-1.886-.222l-17.445-10.066c-.622-.362-.794-.845-.375-1.086l11.558-6.681a2.2,2.2,0,0,1,1.88.216L528.991,598.2c.622.362.794.851.387,1.086Z" transform="translate(-254.198 -448.326)" fill="#a7c1f5"></path><path d="M307.021,455.414a2.2,2.2,0,0,1-1.9-.216l-17.439-10.066c-.622-.356-.794-.851-.368-1.092l11.558-6.674a2.2,2.2,0,0,1,1.88.216l17.439,10.066c.629.362.8.857.387,1.092Z" transform="translate(-177.27 -393.384)" fill="#a7c1f5"></path><path d="M344.83,477.231a2.183,2.183,0,0,1-1.892-.216L325.5,466.949c-.629-.362-.8-.851-.381-1.1l11.558-6.674a2.214,2.214,0,0,1,1.892.222l17.439,10.066c.622.356.794.851.381,1.086Z" transform="translate(-191.067 -401.343)" fill="#a7c1f5"></path><path d="M382.647,499.051a2.2,2.2,0,0,1-1.905-.222L363.3,488.763c-.622-.362-.794-.851-.375-1.092L374.486,481a2.2,2.2,0,0,1,1.886.222l17.439,10.066c.635.362.8.857.394,1.092Z" transform="translate(-204.866 -409.306)" fill="#a7c1f5"></path><path d="M420.457,520.871a2.186,2.186,0,0,1-1.892-.216l-17.445-10.066c-.629-.362-.8-.851-.381-1.1l11.558-6.674a2.214,2.214,0,0,1,1.893.222L431.634,513.1c.629.362.794.851.381,1.086Z" transform="translate(-218.664 -417.269)" fill="#a7c1f5"></path><path d="M458.278,542.685a2.2,2.2,0,0,1-1.893-.21L438.94,532.409c-.629-.362-.8-.851-.375-1.1l11.558-6.674a2.2,2.2,0,0,1,1.886.222l17.445,10.066c.616.356.787.851.381,1.086Z" transform="translate(-232.467 -425.232)" fill="#a7c1f5"></path><path d="M496.108,564.512a2.2,2.2,0,0,1-1.905-.222l-17.439-10.066c-.616-.356-.794-.851-.375-1.092l11.558-6.674a2.22,2.22,0,0,1,1.886.222l17.439,10.066c.635.368.807.857.394,1.092Z" transform="translate(-246.273 -433.196)" fill="#a7c1f5"></path><path d="M533.918,586.331a2.185,2.185,0,0,1-1.892-.216L514.58,576.049c-.629-.362-.8-.851-.375-1.1l11.558-6.674a2.2,2.2,0,0,1,1.886.222l17.445,10.066c.622.362.794.851.381,1.086Z" transform="translate(-260.071 -441.159)" fill="#a7c1f5"></path><path d="M224.593,407.856a2.183,2.183,0,0,1-1.9-.222l-29.575-17.064c-.629-.362-.8-.857-.381-1.1L204.3,382.8a2.214,2.214,0,0,1,1.892.222l29.575,17.064c.629.362.8.857.387,1.092Z" transform="translate(-142.757 -373.469)" fill="#a7c1f5"></path><path d="M589.818,589.648a2.2,2.2,0,0,1-1.9-.222l-29.568-17.064c-.616-.356-.8-.851-.381-1.092l11.552-6.674a2.205,2.205,0,0,1,1.892.216l29.575,17.064c.629.362.8.851.381,1.092Z" transform="translate(-276.046 -439.814)" fill="#a7c1f5"></path><path d="M205.211,425.609a2.17,2.17,0,0,1-1.892-.222l-35.252-20.347c-.629-.362-.807-.851-.387-1.092l11.558-6.681a2.216,2.216,0,0,1,1.892.222l35.252,20.347c.635.368.8.857.387,1.092Z" transform="translate(-133.612 -378.75)" fill="#a7c1f5"></path><path d="M168.4,433.319a2.191,2.191,0,0,1-1.892-.222L143,419.531c-.629-.362-.8-.857-.387-1.092l11.558-6.674a2.206,2.206,0,0,1,1.9.222l23.51,13.565c.629.362.8.857.381,1.1Z" transform="translate(-124.465 -384.04)" fill="#a7c1f5"></path><path d="M275.334,408.2a2.184,2.184,0,0,1-1.9-.222l-17.426-10.059c-.629-.362-.8-.857-.381-1.1l11.552-6.674a2.2,2.2,0,0,1,1.9.222L286.5,400.426c.635.368.807.857.387,1.1Z" transform="translate(-165.708 -376.15)" fill="#a7c1f5"></path><path d="M312.978,429.909a2.2,2.2,0,0,1-1.9-.222L293.64,419.621c-.622-.362-.8-.851-.381-1.092l11.552-6.674a2.2,2.2,0,0,1,1.9.222l17.439,10.066c.629.362.807.857.387,1.1Z" transform="translate(-179.441 -384.073)" fill="#a7c1f5"></path><path d="M350.783,451.723a2.188,2.188,0,0,1-1.892-.216l-17.439-10.066c-.622-.362-.794-.851-.381-1.092l11.552-6.674a2.207,2.207,0,0,1,1.893.216l17.439,10.066c.629.362.794.851.375,1.092Z" transform="translate(-193.241 -392.036)" fill="#a7c1f5"></path><path d="M388.6,473.548a2.2,2.2,0,0,1-1.9-.222l-17.432-10.059c-.635-.362-.8-.857-.387-1.1l11.552-6.674a2.183,2.183,0,0,1,1.9.222l17.432,10.059c.629.362.8.851.381,1.1Z" transform="translate(-207.039 -399.998)" fill="#a7c1f5"></path><path d="M426.412,495.368a2.173,2.173,0,0,1-1.886-.216l-17.439-10.066c-.635-.362-.8-.857-.387-1.1l11.552-6.674a2.183,2.183,0,0,1,1.9.222L437.589,487.6c.635.362.794.851.375,1.092Z" transform="translate(-220.841 -407.961)" fill="#a7c1f5"></path><path d="M464.24,517.182a2.207,2.207,0,0,1-1.893-.216L444.9,506.9c-.622-.362-.794-.851-.375-1.092l11.552-6.674a2.171,2.171,0,0,1,1.886.216l17.445,10.066c.622.356.794.851.375,1.092Z" transform="translate(-234.645 -415.924)" fill="#a7c1f5"></path><path d="M502.054,539.006a2.2,2.2,0,0,1-1.9-.222l-17.439-10.066c-.629-.362-.807-.857-.387-1.1l11.552-6.674a2.22,2.22,0,0,1,1.905.222l17.439,10.066c.629.362.8.851.381,1.092Z" transform="translate(-248.441 -423.884)" fill="#a7c1f5"></path><path d="M539.862,560.822a2.171,2.171,0,0,1-1.886-.216l-17.451-10.072c-.622-.356-.787-.851-.375-1.086l11.552-6.674a2.171,2.171,0,0,1,1.886.216l17.451,10.072c.622.362.794.845.375,1.086Z" transform="translate(-262.243 -431.85)" fill="#a7c1f5"></path><path d="M559.575,590.317a2.736,2.736,0,0,0-1.022-.337,1.436,1.436,0,0,0-.857.114l-11.558,6.674a.393.393,0,0,0-.21.5,1.281,1.281,0,0,0,.578.591l4.553,2.629L535.9,609.249a.389.389,0,0,0-.2.5,1.265,1.265,0,0,0,.584.591l11.749,6.783a2.737,2.737,0,0,0,1.029.343,1.439,1.439,0,0,0,.87-.114l27.473-15.87a.379.379,0,0,0,.19-.5,1.276,1.276,0,0,0-.584-.6Z" transform="translate(-267.992 -449.12)" fill="#a7c1f5"></path><path d="M170.609,432.116a.283.283,0,0,1-.184-.051l-13.33-7.7c-.07-.044-.114-.089-.089-.1l.845-.489a.283.283,0,0,1,.184.051l13.33,7.7c.076.044.114.089.089.108Z" transform="translate(-129.797 -388.471)" fill="#a7c1f5"></path></g><path d="M247.52,593.866l-63.843-35.811c-.737-.413-.724-1.111.032-1.543l27.13-15.616a3.055,3.055,0,0,1,2.718-.038L277.4,576.668c.737.413.724,1.111-.032,1.543l-27.13,15.616A3.034,3.034,0,0,1,247.52,593.866Z" transform="translate(-66.833 -197.271)" fill="#a7c1f5"></path><path d="M683.81,635.276c-.61,1.778-2.2,2.845-3.544,2.382s-1.943-2.28-1.334-4.058,2.2-2.845,3.544-2.381S684.426,633.5,683.81,635.276Z" transform="translate(-247.683 -230.317)" fill="none" stroke="#342b8c" stroke-linecap="round" stroke-linejoin="round" stroke-miterlimit="10" stroke-width="3.349"></path><path d="M589.966,163.064,310.254,1.575h0a.091.091,0,0,1-.019-.013l-.419-.241h-.006L309.073.9l-.286-.152c-.1-.051-.2-.1-.292-.14s-.2-.083-.292-.127l-.3-.114c-.1-.038-.2-.07-.3-.1s-.216-.064-.324-.089a.023.023,0,0,1-.019-.006h0c-.013,0-.019-.006-.032-.006-.1-.025-.184-.044-.279-.064A1.077,1.077,0,0,1,306.8.07l-.114-.019A.429.429,0,0,0,306.6.038c-.114-.013-.229-.025-.343-.032h-.038c-.133,0-.26-.006-.394-.006h-.044c-.064,0-.121.006-.178.006s-.14.006-.21.013c-.019,0-.038.006-.057.006l-.286.038a1.272,1.272,0,0,0-.152.025c-.013,0-.019.006-.032.006a3.934,3.934,0,0,0-.553.152c-.013.006-.025.006-.038.013s-.038.019-.057.025a4.314,4.314,0,0,0-.673.311L295.33,5.373a4.794,4.794,0,0,1,.66-.3c.089-.032.178-.057.267-.089.108-.032.216-.064.324-.089.133-.032.267-.051.4-.07a1.248,1.248,0,0,1,.152-.019c.191-.019.381-.025.572-.025a.617.617,0,0,1,.108.006,4.936,4.936,0,0,1,.6.051c.013,0,.032.006.044.006a6.292,6.292,0,0,1,.654.133.2.2,0,0,0,.051.013c.216.057.432.127.654.21.019.006.044.019.064.025.235.089.464.191.7.3.1.044.191.1.286.146.076.038.146.083.222.127l1.55.9h0L582.784,168.437a1.039,1.039,0,0,0,1.035,0l6.147-3.575A1.04,1.04,0,0,0,589.966,163.064ZM307.491,2.07Z" transform="translate(-107.778)" fill="#e6f0ff"></path><g transform="translate(155.277 4.46)"><path d="M564.751,170.987c3.829,2.21,6.4,7.29,5.741,11.355L540.675,366.6c-.654,4.064-4.293,5.563-8.122,3.353l-282.2-162.937c-3.829-2.21-6.4-7.29-5.741-11.355L274.42,11.4c.66-4.064,4.293-5.563,8.122-3.353Z" transform="translate(-244.507 -7.024)" fill="#2a3c87"></path></g><g transform="translate(163.064 27.596)"><path d="M559.154,196.139c3.632,2.058,6.1,6.484,5.5,9.894L537.688,360.619c-.591,3.41-4.02,4.5-7.652,2.445L262.358,211.425c-3.633-2.058-6.1-6.484-5.5-9.894L283.823,46.938c.6-3.41,4.02-4.5,7.652-2.445Z" transform="translate(-256.77 -43.454)" fill="#85bcff"></path></g><g transform="translate(163.153 27.596)"><path d="M256.91,201.53,283.875,46.938c.6-3.41,4.02-4.5,7.652-2.445L498.684,161.846Z" transform="translate(-256.91 -43.454)" fill="#dbecff" opacity="0.28"></path></g><path d="M316.98,1.41,593.5,160.169s13.209,6.23,10.942,18.741l-26.4,163.5" transform="translate(-115.679 -0.515)" fill="none" stroke="#342b8c" stroke-linecap="round" stroke-linejoin="round" stroke-miterlimit="10" stroke-width="1.17"></path><line x1="12.587" y2="7.386" transform="translate(333.616 453.845)" stroke-width="3.349" stroke="#342b8c" stroke-linecap="round" stroke-linejoin="round" stroke-miterlimit="10" fill="none"></line><line x1="12.587" y2="7.386" transform="translate(317.873 463.327)" stroke-width="3.349" stroke="#342b8c" stroke-linecap="round" stroke-linejoin="round" stroke-miterlimit="10" fill="none"></line><line x2="289.594" y2="167.141" transform="translate(151.424 219.407)" stroke-width="3.55" stroke="#99a8e0" stroke-linecap="round" stroke-linejoin="round" stroke-miterlimit="10" fill="none"></line><path d="M285.676,487.167,118.09,389.628,213.425,336.3a119.7,119.7,0,0,0,59.7-85.212L293.671,125.1l163.591,95.507-18.131,115.74a143.593,143.593,0,0,1-69.456,101.781Z" transform="translate(-43.096 -45.654)" fill="#a7bcf5" opacity="0.39"></path><path d="M272.486,460.837,104.9,363.3l95.335-53.332a119.7,119.7,0,0,0,59.7-85.212L280.481,98.77l163.591,95.507-18.131,115.74A143.594,143.594,0,0,1,356.485,411.8Z" transform="translate(-38.282 -36.045)" fill="#fff"></path><path d="M536.929,226.134,373.02,130.519l5.449-31.759,163.445,95.513Z" transform="translate(-136.13 -36.042)" fill="#2a3c87"></path><path d="M394.761,132.838c-.47,2.743-2.439,4.045-4.395,2.9s-3.163-4.293-2.686-7.036,2.439-4.045,4.395-2.9S395.231,130.095,394.761,132.838Z" transform="translate(-141.442 -45.759)" fill="#fff"></path><path d="M410.641,142.1c-.47,2.743-2.439,4.045-4.395,2.9s-3.163-4.293-2.686-7.036,2.439-4.045,4.395-2.9S411.111,139.355,410.641,142.1Z" transform="translate(-147.238 -49.138)" fill="#fff"></path><path d="M426.531,151.368c-.47,2.743-2.439,4.045-4.395,2.9s-3.163-4.293-2.686-7.036,2.439-4.045,4.395-2.9S427,148.625,426.531,151.368Z" transform="translate(-153.036 -52.521)" fill="#fff"></path><g transform="translate(206.02 120.547)"><path d="M546.892,332.607l-57.7-34.858a5.774,5.774,0,0,1-2.305-5.646l6.586-35.341c.394-2.115,2.064-3.01,3.728-2l57.7,34.858a5.774,5.774,0,0,1,2.305,5.646l-6.586,35.341C550.233,332.721,548.563,333.617,546.892,332.607Z" transform="translate(-383.676 -213.368)" fill="#bad4ff"></path><path d="M471.7,248.546,451.04,236.061l1.48-7.951,20.665,12.479Z" transform="translate(-370.622 -203.794)" fill="#bad4ff"></path><path d="M459.949,269.857,427.11,250.017l1.48-7.957L461.429,261.9Z" transform="translate(-361.889 -208.884)" fill="#bad4ff"></path><path d="M439.15,285.7,378.4,249l1.48-7.957,60.756,36.7Z" transform="translate(-344.113 -208.512)" fill="#bad4ff"></path><path d="M433.48,316.121l-60.75-36.7,1.486-7.951,60.75,36.694Z" transform="translate(-342.044 -219.617)" fill="#bad4ff"></path><path d="M543.48,382.567l-60.75-36.7,1.48-7.957,60.75,36.7Z" transform="translate(-382.187 -243.864)" fill="#2a3c87"></path><path d="M427.82,346.541l-60.75-36.7,1.48-7.951,60.75,36.7Z" transform="translate(-339.978 -230.719)" fill="#bad4ff"></path><path d="M420.52,378.347l-60.75-36.7,1.48-7.957L422,370.39Z" transform="translate(-337.314 -242.324)" fill="#bad4ff"></path><path d="M538.66,413.507l-60.75-36.7,1.486-7.957,60.75,36.7Z" transform="translate(-380.428 -255.155)" fill="#bad4ff"></path><path d="M533,443.927l-60.75-36.7,1.48-7.957,60.75,36.7Z" transform="translate(-378.363 -266.257)" fill="#bad4ff"></path><path d="M519.525,471.459l4.541-6.109-60.75-36.7-3.436,6.776Z" transform="translate(-373.849 -276.979)" fill="#bad4ff"></path><path d="M509.076,493.6l-4.541,6.1L444.89,463.676l3.436-6.776Z" transform="translate(-368.378 -287.288)" fill="#bad4ff"></path><path d="M384.061,428l4.541-6.1-60.756-36.7-3.436,6.776Z" transform="translate(-324.41 -261.122)" fill="#bad4ff"></path><path d="M373.455,387.384,348.98,372.5l3.6-7.875,24.469,14.879Z" transform="translate(-333.377 -253.615)" fill="#bad4ff"></path></g><g transform="translate(138.958 264.096)"><path d="M308.811,478.776l-62.249-35.938c-1.8-1.035-1.7-2.928.235-4.223l32.223-21.63a7,7,0,0,1,6.744-.464l62.249,35.938c1.8,1.035,1.7,2.928-.235,4.223l-32.223,21.63A7,7,0,0,1,308.811,478.776Z" transform="translate(-228.47 -415.861)" fill="#9ec3ff"></path><path d="M284.355,508.914,218.81,471.071l7.252-4.871,65.545,37.843Z" transform="translate(-218.81 -434.232)" fill="#bad4ff"></path><path d="M482.975,525.558,417.43,487.721l7.252-4.871,65.544,37.843Z" transform="translate(-291.294 -440.308)" fill="#bad4ff"></path><path d="M455.235,544.184,389.69,506.341l7.252-4.871,65.544,37.843Z" transform="translate(-281.171 -447.103)" fill="#bad4ff"></path><path d="M427.495,562.8,361.95,524.961l7.252-4.871,65.544,37.843Z" transform="translate(-271.048 -453.898)" fill="#bad4ff"></path><path d="M369.049,525.927l-65.792-36.252,7.252-4.871L376.3,521.056Z" transform="translate(-345.048 -432.898)" fill="#2b3b87"></path><path d="M365.5,555.764,338.92,540.421l7.252-4.871,26.577,15.343Z" transform="translate(-262.643 -459.54)" fill="#bad4ff"></path><path d="M315.262,477.568,255.09,442.83,286.119,422l60.172,34.738Z" transform="translate(-232.05 -418.101)" fill="#bad4ff"></path><path d="M313.541,470.235l-13.94-8.046c-3.436-1.981-3.232-5.627.445-8.1l4.414-2.966c3.677-2.47,9.5-2.87,12.93-.883l13.94,8.046c3.436,1.981,3.232,5.627-.445,8.1l-4.414,2.966C322.794,471.816,316.977,472.216,313.541,470.235Z" transform="translate(-247.4 -427.947)" fill="#9ec3ff"></path><path d="M326.427,467.5a9.139,9.139,0,0,1-8.846.191c-2.54-1.467-2.705-3.931-.362-5.506a9.14,9.14,0,0,1,8.846-.19C328.612,463.471,328.77,465.935,326.427,467.5Z" transform="translate(-254.119 -432.316)" fill="#bad4ff"></path></g><g transform="translate(116.792 253.694)"><ellipse cx="30.165" cy="14.987" rx="30.165" ry="14.987" transform="translate(0 186.82) rotate(-1.02)" fill="#a8c4e5" opacity="0.4"></ellipse><path d="M193.217,696.35l6.363-.8c4.261-1.931,6.249-3.379,8.148-2.286l.54.311c1.9,1.092,1.657,3.029-.533,4.293l-9.361,7.437a6.184,6.184,0,0,1-6.89-.667s-1.048-.946-.3-4.922C191.617,697.443,191.471,697.36,193.217,696.35Z" transform="translate(-186.465 -506.556)" fill="#2c1f9c"></path><path d="M246.949,721.581l6.37.781c4.6-.826,6.89-1.746,8.459-.222l.445.432c1.569,1.524.864,3.341-1.569,4.033l-10.891,4.915a6.169,6.169,0,0,1-6.516-2.337s-.781-1.175.914-4.845C245.127,722.254,245.006,722.133,246.949,721.581Z" transform="translate(-205.497 -516.933)" fill="#2c1f9c"></path><path d="M251.415,717.8c.2,3.182-7.532,3.671-7.735.5l-.66-10.332,7.735-.5Z" transform="translate(-205.48 -511.878)" fill="#c6d2f2"></path><path d="M239.957,651.988c-2.312,3.766-7.843,4.141-9.57,1.638l-4.217-45.267-16.08-61.391L238,545.19l4.884,64.713Z" transform="translate(-193.463 -452.655)" fill="#2a3c87"></path><path d="M199.526,694.943c-.178,2.883-7.926,2.883-7.748,0l.572-9.373H200.1Z" transform="translate(-186.779 -503.886)" fill="#c6d2f2"></path><path d="M200.418,639.828c-3.093,3.188-9.183,1.823-10.358-.476l4.179-39.749-.076-53.643,19.477,2.883-5.176,53.967Z" transform="translate(-186.153 -452.936)" fill="#2a3c87"></path><path d="M230.408,423.93c-1.918,6.694-6.9,8.58-11.114,4.21s-3.569-13.095-1.651-19.788,4.388-8.815,8.605-4.445S232.332,417.237,230.408,423.93Z" transform="translate(-195.675 -400.262)" fill="#ffc2b0"></path><path d="M241.965,423.029c-2.629,6.446-10.021,8.084-13.743,3.29s-4.611-13.914-1.988-20.36,7.779-7.786,11.5-2.991S244.587,416.577,241.965,423.029Z" transform="translate(-198.805 -399.704)" fill="#ffc2b0"></path><path d="M219.456,450.273l-.66-.324a4.53,4.53,0,0,1-2.051-6.046l6.2-12.549a4.525,4.525,0,0,1,6.046-2.051l.66.324a4.525,4.525,0,0,1,2.051,6.046l-4.185,12.936C226.416,450.832,221.685,451.372,219.456,450.273Z" transform="translate(-195.722 -410.195)" fill="#ffc2b0"></path><path d="M215.393,420.634s.959,5.836,6.547,6.522c6.439.794,5.849-10.4,12.339-10.885,8.777-.667,8.573-9.088,6.166-12.72s-7.125-3.823-12.949-4.033C221.343,399.289,213.348,399.41,215.393,420.634Z" transform="translate(-195.279 -399.48)" fill="#2a3c87"></path><path d="M243.168,428.885a3.065,3.065,0,1,1-1.683-3.995A3.068,3.068,0,0,1,243.168,428.885Z" transform="translate(-203.38 -408.671)" fill="#ffc2b0"></path><path d="M194.291,508.323c-1.594-12.015-1.785-20.03-1.588-33.36,2.1-25.358,4.077-29.956,13.133-28.6l3.569.946a24.664,24.664,0,0,1,4.953,1.911c16.708,8.605,21.167,11.26,20.43,21.249.076,16.448-2.35,34.89-2.693,42.981C228.661,524.822,198.108,516.458,194.291,508.323Z" transform="translate(-187.095 -416.513)" fill="#ec8c22"></path><path d="M237.63,444.7l-.54-1.746a4.6,4.6,0,0,0,3.633,1.378A5.9,5.9,0,0,1,237.63,444.7Z" transform="translate(-203.316 -415.344)" fill="#f09a82"></path><g transform="matrix(0.454, 0.891, -0.891, 0.454, 127.969, -27.644)"><path d="M347.37,607.742l20.36,16.08-1.4-24.412Z" transform="translate(-283.401 -492.68)" fill="#bad4ff"></path><path d="M370,628.269l5.989,4.725-.483-8.434C375.011,628.567,373.105,629.66,370,628.269Z" transform="translate(-291.66 -501.858)" fill="#2b3b87"></path><circle cx="10.923" cy="10.923" r="10.923" transform="translate(57.423 112.446) rotate(-62.838)" fill="#3f5fc2"></circle><path d="M334.085,540.53l-54.761-88.94L263.39,467.162l43.8,70.9Z" transform="translate(-252.754 -438.734)" fill="#3f5fc2"></path><path d="M325.7,555.9a11.061,11.061,0,0,1-1.55-2.216l-.038.025L274.038,471.18l-10.028,4.141,51.541,83.428.038-.025a11.058,11.058,0,0,0,1.55,2.216,10.93,10.93,0,0,0,13.374,2.2Z" transform="translate(-252.98 -445.884)" fill="#2a3c87"></path><path d="M280.3,453.87v-.006l-3.417-5.423-2.89,2.509a12.924,12.924,0,0,0-7.672,3.1,12.7,12.7,0,0,0-4.6,7.57l-1.27,1.1,1.626,3.074.1-.025a6.28,6.28,0,0,0,.9,1.486c2.858,3.448,8.942,3.131,13.584-.718C281.077,462.888,282.6,457.369,280.3,453.87Z" transform="translate(-251.681 -437.585)" fill="#e1eaf4"></path><path d="M275.232,446.4c-.07-.083-.146-.152-.216-.229l.013-.006-3.772-5.373-4.4,3.6a14.122,14.122,0,0,0-8.789,7.2l-3.7,3.023,3.525,4.985a5.75,5.75,0,0,0,.514.724c2.858,3.448,8.942,3.131,13.584-.718S278.083,449.846,275.232,446.4Z" transform="translate(-249.462 -434.793)" fill="#f6bd36"></path><ellipse cx="10.923" cy="8.11" rx="10.923" ry="8.11" transform="translate(0 13.929) rotate(-39.612)" fill="#ec8c22"></ellipse></g><path d="M237.83,472.151s2.841,18.017,20.326,40.015c4.807,6.052,28.983,2.369,28.983,2.369l-.011-5.646s-18.163,2.343-22.66-4.9C259.4,495.845,252.073,464.683,237.83,472.151Z" transform="translate(-204.586 -428.582)" fill="#ffc2b0"></path><path d="M241.273,481.208l9.7,19.763c3.423,6.23,18.175-3.912,13.387-10.929-.3-.445-11.774-24.52-21.719-27.346C234.554,460.391,235.443,471.714,241.273,481.208Z" transform="translate(-203.187 -422.44)" fill="#ec8c22"></path><path d="M331.863,538.453l-3.309-.013a4.635,4.635,0,0,1-4.6-4.636h0a4.635,4.635,0,0,1,4.636-4.6l3.309.013a4.635,4.635,0,0,1,4.6,4.636h0A4.631,4.631,0,0,1,331.863,538.453Z" transform="translate(-246.015 -450.82)" fill="#ffc2b0"></path><path d="M253.628,514.1l-4.966-10.6-1.042,35.367a6.525,6.525,0,0,0,4.553-4.49Z" transform="translate(-207.159 -437.441)" fill="#f6bd36"></path><path d="M216.118,447.25s-1.607,3.582,2.629,5.258,11.056.775,11.056.775S221,447.5,216.118,447.25Z" transform="translate(-195.554 -416.913)" fill="#fff"></path><path d="M216.67,590.213l-4.947-18.283H208.63l7.386,29.657Z" transform="translate(-192.93 -462.414)" fill="#2415ad"></path><path d="M256.55,511.818a16.569,16.569,0,0,0,9.393-2.42c4.128-2.718,4.128-8.078,4.128-8.078" transform="translate(-210.418 -436.645)" fill="#ec8c22" stroke="#fff" stroke-linecap="round" stroke-linejoin="round" stroke-miterlimit="10" stroke-width="1.426"></path><path d="M242.123,428.524h0a1.028,1.028,0,0,1-.768-1.226l.584-6.725c.127-.546,1.372.273,1.918.394h0c.546.127,2.216.21,2.089.762l-2.6,6.027A1.014,1.014,0,0,1,242.123,428.524Z" transform="translate(-204.863 -407.11)" fill="#2a3c87"></path></g><path d="M458.09,649.755c-14.7-8.815-38.758-9.215-53.745-.9s-15.216,22.214-.514,31.029,38.5,9.221,53.758,1.067C474.36,672,472.785,658.57,458.09,649.755Z" transform="translate(-143.405 -234.61)" fill="#a7bcf5" opacity="0.39"></path><g transform="translate(247.651 395.004)"><path d="M455.1,628.876c-14.7-8.815-38.758-9.215-53.745-.889s-15.216,22.214-.514,31.029,38.5,9.221,53.758,1.067C471.37,651.122,469.8,637.69,455.1,628.876Z" transform="translate(-389.965 -621.995)" fill="#ec8c22"></path><line y1="5" x2="39" transform="translate(18.849 17.633)" fill="none" stroke="#fff" stroke-linecap="round" stroke-width="8"></line><line x2="26" y2="22" transform="translate(25.849 9.633)" fill="none" stroke="#fff" stroke-linecap="round" stroke-width="8"></line></g><path d="M684.021,359.2l-25.58-13.647c-5.341-2.851-10.625.686-11.736,7.856l-2.864,18.487c-1.111,7.17,2.35,15.369,7.7,18.22l3.4,1.816,4.388,11.647c.533,1.416,2.534,1.689,3.982.54l5.836-4.6,7.976,4.255c5.341,2.851,10.625-.686,11.736-7.856l2.864-18.487C692.829,370.25,689.368,362.045,684.021,359.2Z" transform="translate(-234.888 -125.746)" fill="#a7bcf5" opacity="0.39"></path><path d="M676.411,348.31l-25.58-13.647c-5.341-2.851-10.625.686-11.736,7.856L636.231,361c-1.111,7.17,2.35,15.368,7.7,18.22l3.4,1.816,4.395,11.647c.534,1.416,2.534,1.689,3.982.54l5.836-4.6,7.976,4.255c5.341,2.851,10.625-.686,11.736-7.856l2.864-18.487C685.219,359.36,681.758,351.161,676.411,348.31Z" transform="translate(-132.11 -124.771)" fill="#fff"></path><path d="M665.592,361.1l-2.547,3.379a1.5,1.5,0,0,1-1.772.483l-4.293-1.531c-1.753-.629-2.813,1.435-1.791,3.493l2.5,5.023a3.31,3.31,0,0,1,.267,2.451l-1.461,4.426c-.6,1.81.959,4.268,2.635,4.153l4.09-.273a2.413,2.413,0,0,1,1.943,1.035l3.385,4.268c1.385,1.746,3.41,1.2,3.423-.927L672,381.89a1.941,1.941,0,0,1,.933-1.81l3.556-1.791c1.454-.73,1.149-3.525-.521-4.725L671.9,370.63a3.677,3.677,0,0,1-1.365-2.153l-1.194-5.373C668.844,360.895,666.634,359.714,665.592,361.1Z" transform="translate(-138.959 -134.562)" fill="#ffc248"></path><g transform="translate(452 37.136)"><g transform="translate(0 0)"><g transform="translate(123.636 30.779)"><path d="M86.97,22.751h0a4.936,4.936,0,0,1,5.795-.631L194.843,81.041a6.442,6.442,0,0,1,2.9,5.034v72.489a3.887,3.887,0,0,1-2.869,3.758h0a2.688,2.688,0,0,1-2.022-.258l-103.742-59.9a6.442,6.442,0,0,1-2.9-5.034V24.487A2.293,2.293,0,0,1,86.97,22.751Z" transform="translate(-86.196 -21.46)" fill="url(#a)"></path><path d="M86.2,24.347c0-1.85,1.305-2.6,2.9-1.678l103.4,59.7a6.442,6.442,0,0,1,2.9,5.034v72.446c0,1.85-1.305,2.6-2.9,1.678L89.112,101.813a6.442,6.442,0,0,1-2.9-5.034V24.347Z" transform="translate(-86.2 -21.105)" fill="#f6f8fb"></path><path d="M99.247,39.959c-3.758-2.166-6.827-.387-6.827,3.944a15.13,15.13,0,0,0,6.827,11.819c3.758,2.166,6.827.387,6.827-3.944A15.13,15.13,0,0,0,99.247,39.959Z" transform="translate(-83.499 -13.826)" fill="#99a7d8"></path><path d="M192.491,82.364,89.107,22.669c-1.592-.918-2.9-.172-2.9,1.678v8.046L195.4,95.445V87.384A6.415,6.415,0,0,0,192.491,82.364Z" transform="translate(-86.196 -21.105)" fill="#2a3c87"></path><g transform="translate(32.171 34.524)"><path d="M176.372,86.78,108.63,47.7V45.53l67.742,38.941Z" transform="translate(-108.63 -45.53)" fill="#e5e9f4"></path></g><g transform="translate(32.171 43.187)"><path d="M176.372,92.82,108.63,53.736V51.57l67.742,38.955Z" transform="translate(-108.63 -51.57)" fill="#e5e9f4"></path></g><g transform="translate(32.171 51.85)"><path d="M176.372,98.86,108.63,59.776V57.61l67.742,38.955Z" transform="translate(-108.63 -57.61)" fill="#e5e9f4"></path></g><g transform="translate(32.171 60.513)"><path d="M176.372,104.9,108.63,65.816V63.65l67.742,38.955Z" transform="translate(-108.63 -63.65)" fill="#e5e9f4"></path></g><g transform="translate(32.171 69.176)"><path d="M176.372,110.955l-67.742-39.1V69.69l67.742,38.955Z" transform="translate(-108.63 -69.69)" fill="#e5e9f4"></path></g><g transform="translate(32.171 77.84)"><path d="M176.372,116.995,108.63,77.9V75.73l67.742,38.955Z" transform="translate(-108.63 -75.73)" fill="#e5e9f4"></path></g><g transform="translate(32.171 86.503)"><path d="M147.93,106.569,108.63,83.95V81.77l39.3,22.5Z" transform="translate(-108.63 -81.77)" fill="#e5e9f4"></path></g><path d="M90.35,49.69V83.64l19.592,11.317V61.007Z" transform="translate(-84.398 -9.199)" fill="#d3daed"></path><g transform="translate(6.497 8.645)"><path d="M92.121,27.678c-.775-.445-1.391-.086-1.391.8A3.122,3.122,0,0,0,92.121,30.9c.775.445,1.391.086,1.391-.8A3,3,0,0,0,92.121,27.678Z" transform="translate(-90.73 -27.487)" fill="#fff"></path><path d="M95.461,29.638c-.775-.445-1.391-.086-1.391.8a3.122,3.122,0,0,0,1.391,2.424c.775.445,1.391.086,1.391-.8A3.122,3.122,0,0,0,95.461,29.638Z" transform="translate(-89.279 -26.636)" fill="#fff"></path><path d="M98.791,31.6c-.775-.445-1.391-.086-1.391.8a3.122,3.122,0,0,0,1.391,2.424c.775.445,1.391.086,1.391-.8A3.122,3.122,0,0,0,98.791,31.6Z" transform="translate(-87.833 -25.785)" fill="#fff"></path></g></g><path d="M141.2,99l3.3-1.406v-8.1a2.148,2.148,0,0,1,.115-.717v-.115a1.1,1.1,0,0,1,.33-.789c1.147-1.119,4.131-1.162,5.522-.359l23.852,13.784V130.1a3.887,3.887,0,0,1-2.869,3.758,2.623,2.623,0,0,1-2.022-.258l-.244-.143a.43.43,0,0,1-.115-.057L144.5,119.218v-8l-4.188-10.054A1.654,1.654,0,0,1,141.2,99Z" transform="translate(60.878 37.765)" fill="#231f20" opacity="0.2"></path><g transform="translate(203.165 130.358)"><path d="M145.074,91.795h0c1.147-1.119,4.131-1.162,5.522-.359l80.033,46.27a5.036,5.036,0,0,1,2.266,3.93V175.3a3.15,3.15,0,0,1-2.137,2.983h0a1.21,1.21,0,0,1-1.147-.229l-82.414-47.1a5.081,5.081,0,0,1-2.467-3.83V92.584A1.241,1.241,0,0,1,145.074,91.795Z" transform="translate(-140.31 -90.887)" fill="url(#b)"></path><path d="M145.968,93.14c0-1.434,1.018-2.037,2.266-1.305l80.822,46.657a5.036,5.036,0,0,1,2.266,3.93v33.821c0,1.434-1.018,2.037-2.266,1.305L148.234,130.89a5.036,5.036,0,0,1-2.266-3.93V114.884l-4.188-10.054a1.686,1.686,0,0,1,.889-2.194l3.3-1.406V93.14Z" transform="translate(-141.648 -90.611)" fill="#f6f8fb"></path><g transform="translate(14.316 13.415)"><path d="M198.388,130.174,151.63,103.266V100.24l46.758,26.85Z" transform="translate(-151.63 -100.24)" fill="#e5e9f4"></path></g><g transform="translate(14.316 23.785)"><path d="M198.388,137.318,151.63,110.5V107.47l46.758,26.864Z" transform="translate(-151.63 -107.47)" fill="#e5e9f4"></path></g><g transform="translate(14.316 34.786)"><path d="M177.634,133.04l-26-14.874V115.14l26,14.917Z" transform="translate(-151.63 -115.14)" fill="#e5e9f4"></path></g><path d="M186.03,118.05l.057,29.13,21,12V130Z" transform="translate(-122.374 -79.09)" fill="#ec8c22"></path></g><path d="M86.2,33.96l15.433,8.878a8.69,8.69,0,0,1,3.916,6.784V85.781a4.667,4.667,0,0,1-1.879,3.729L101.246,91.3a.014.014,0,0,0-.014.014h0a2.76,2.76,0,0,1-2.754-.273L86.2,83.959v-50Z" transform="translate(37.436 14.748)" fill="#231f20" opacity="0.2"></path><g transform="translate(56.009 18.361)"><path d="M117.966,54.15a8.69,8.69,0,0,1,3.916,6.784V97.092A4.667,4.667,0,0,1,120,100.822l-2.438,1.807c-.645.158,1.248-1.592.4-2.08L45.434,58.668a8.55,8.55,0,0,1-3.858-6.77l.473-37.019c.014-.832-1.549-.975-1.549-.975l1.807-.7a6,6,0,0,1,5.12.387Z" transform="translate(-38.42 -12.802)" fill="url(#c)"></path><path d="M115.44,55.62a8.69,8.69,0,0,1,3.916,6.784V99.767c0,2.481-1.764,3.5-3.916,2.266L42.908,60.152a8.55,8.55,0,0,1-3.858-6.77l.473-37.019c.029-2.481,1.822-3.5,3.973-2.252Z" transform="translate(-39.05 -12.465)" fill="#f6f8fb"></path><g transform="translate(51.233 43.519)"><path d="M87.636,44.859C94.707,48.947,100.5,58.973,100.5,67.134S94.707,78.78,87.636,74.85,74.77,60.909,74.77,52.576,80.565,40.772,87.636,44.859Z" transform="translate(-74.77 -43.144)" fill="#ec8c22"></path><path d="M88.8,61.386c0,2.926-2.08,4.174-4.6,2.768a10.021,10.021,0,0,1-4.6-7.975Z" transform="translate(-72.677 -37.482)" fill="#fff"></path><path d="M80.1,49.379a3.165,3.165,0,0,1,1.42,2.453c0,.9-.645,1.291-1.42.846a3.1,3.1,0,0,1-1.42-2.453C78.68,49.307,79.325,48.92,80.1,49.379Z" transform="translate(-73.072 -40.52)" fill="#48486a"></path><path d="M86.56,53.217a3.165,3.165,0,0,1,1.42,2.453c0,.9-.645,1.291-1.42.846a3.1,3.1,0,0,1-1.42-2.453C85.14,53.145,85.785,52.772,86.56,53.217Z" transform="translate(-70.266 -38.851)" fill="#48486a"></path></g><path d="M84.64,46.229l-.014,3.442L42.4,25.2V21.66Z" transform="translate(-37.595 -8.955)" fill="#e5e9f4"></path><path d="M84.64,52.049l-.014,3.442L42.4,31.023V27.48Z" transform="translate(-37.595 -6.427)" fill="#e5e9f4"></path><path d="M84.64,57.869l-.014,3.442L42.4,36.843V33.3Z" transform="translate(-37.595 -3.9)" fill="#e5e9f4"></path><path d="M78.69,60.215l-.014,3.442L56.1,50.663V47.12Z" transform="translate(-31.645 2.102)" fill="#e5e9f4"></path></g><g transform="translate(230.877 198.166)"><path d="M230.641,174.676a7.668,7.668,0,0,1,3.457,5.981l-.1,33.648a2.679,2.679,0,0,1-1.836,2.539l-1.879.631c-.559.143,1.1-1.406.359-1.836L166.6,178.663a7.532,7.532,0,0,1-3.4-5.981l.416-32.687c.014-.746-1.377-.861-1.377-.861l1.592-.617a5.265,5.265,0,0,1,4.518.344Z" transform="translate(-160.418 -138.163)" fill="url(#d)"></path><path d="M228.41,175.988a7.668,7.668,0,0,1,3.457,5.981v32.989c0,2.194-1.549,3.1-3.457,1.994l-64.041-36.976a7.533,7.533,0,0,1-3.4-5.981l.416-32.687c.029-2.194,1.606-3.1,3.5-1.994Z" transform="translate(-160.97 -137.869)" fill="#f6f8fb"></path><path d="M217.372,176.306v3.041l-37.292-21.6V154.62Z" transform="translate(-152.67 -131.016)" fill="#e5e9f4"></path><path d="M217.372,181.446v3.041l-37.292-21.6V159.76Z" transform="translate(-152.67 -128.784)" fill="#e5e9f4"></path><path d="M217.372,186.586v3.041l-37.292-21.6V164.9Z" transform="translate(-152.67 -126.551)" fill="#e5e9f4"></path><path d="M201.351,182.443V185.5L180.08,173.307V170.18Z" transform="translate(-152.67 -124.258)" fill="#e5e9f4"></path><g transform="translate(5.565 10.652)"><path d="M177.786,149.405l-5.637-3.256a4.146,4.146,0,0,0-4.159,0,4.1,4.1,0,0,0-2.08,3.6v21.227l2.295,2.768,1.535-.76V162.314l7.53,4.389v10.843l2.295,2.983,1.535-.76V155.157A6.655,6.655,0,0,0,177.786,149.405Zm-8.046,8.477v-8.118a.331.331,0,0,1,.158-.287.338.338,0,0,1,.33,0l5.637,3.256a2.8,2.8,0,0,1,1.391,2.41v7.114Z" transform="translate(-164.39 -145.59)" fill="#48486a"></path><path d="M176.726,149.945l-5.637-3.256a4.146,4.146,0,0,0-4.159,0,4.1,4.1,0,0,0-2.08,3.6v21.227l3.83,2.008V162.854l7.53,4.375v10.843l3.83,2.209V155.668A6.669,6.669,0,0,0,176.726,149.945Zm-8.046,8.462v-8.118a.331.331,0,0,1,.158-.287.338.338,0,0,1,.33,0l5.637,3.256a2.794,2.794,0,0,1,1.391,2.41v7.114Z" transform="translate(-164.85 -145.355)" fill="#2a3c87"></path></g></g><g transform="translate(8.993 57.285)"><path d="M66.725,71.366,12.61,40.342a3.072,3.072,0,0,0-3.959.8l-1.836,2.41A2.7,2.7,0,0,0,6.27,45.19l.947,26.75c0,1.692.3,2.768,1.764,3.614L32.948,90.126,45.354,97.4l17.857,10.571h3.127a2.755,2.755,0,0,0,2.754-2.754V75.468A4.74,4.74,0,0,0,66.725,71.366Z" transform="translate(-6.27 -39.939)" fill="url(#e)"></path><path d="M6.27,44.269V71.492a4.74,4.74,0,0,0,2.367,4.1l53.485,31.268a2.672,2.672,0,0,0,4.03-2.295V76.957a4.74,4.74,0,0,0-2.367-4.1L10.272,41.96A2.666,2.666,0,0,0,6.27,44.269Z" transform="translate(-6.27 -39.22)" fill="#f6f8fb"></path><path d="M19.428,58.228c-.172-2.223-1.492-4.461-2.969-4.991a1.481,1.481,0,0,0-1.807.531,4.243,4.243,0,0,0-1.994-1.893c-1.463-.531-2.524.861-2.352,3.084a7.35,7.35,0,0,0,.961,3.055l4.231,7.1,3.457-4.475a2.366,2.366,0,0,0,.129-.229A4,4,0,0,0,19.428,58.228Z" transform="translate(-4.525 -34.805)" fill="#2a3c87"></path><g transform="translate(14.888 24.823)"><path d="M19.5,60.952a1.561,1.561,0,0,0,.33-.717,1.7,1.7,0,0,0-.043-.76.851.851,0,0,0-.359-.5c-.3-.172-.66.014-1.047.574L17.668,58.2a2.562,2.562,0,0,1,.975-.875,1.182,1.182,0,0,1,1.1.158,2.477,2.477,0,0,1,.99,1.291,3.632,3.632,0,0,1,.158,2.051,2.914,2.914,0,0,1-.387,1.061,4.9,4.9,0,0,1-.947,1.033l-1.133.99,1.908,1.1L20.064,66.6,16.65,64.624l.229-1.32,1.836-1.563A8.055,8.055,0,0,0,19.5,60.952Z" transform="translate(-16.65 -57.246)" fill="#5c629e"></path><path d="M23.986,60.3l-.273,1.535-1.908-1.1-.215,1.334a1.084,1.084,0,0,1,.5.186,2.6,2.6,0,0,1,1.076,1.391,4.039,4.039,0,0,1,.186,2.166,2.315,2.315,0,0,1-.861,1.635,1.2,1.2,0,0,1-1.42.014,3.372,3.372,0,0,1-1.434-2.137l.789-.961c.029.086.072.215.129.344a5.079,5.079,0,0,0,.316.617,1.412,1.412,0,0,0,.516.559.531.531,0,0,0,.545.014.976.976,0,0,0,.359-.688,1.775,1.775,0,0,0-.086-.961,1.246,1.246,0,0,0-.545-.631,1.2,1.2,0,0,0-.932-.057l-.316-1.061.674-3.873Z" transform="translate(-15.351 -56.649)" fill="#5c629e"></path></g><g transform="translate(44.736 42.212)"><path d="M37.46,69.37l2.281,1.305L39.7,78.134l-1.2-.688.043-6.038L37.46,70.79Z" transform="translate(-37.46 -69.37)" fill="url(#f)"></path><path d="M42.267,74.819a1.029,1.029,0,0,0,.215-.645,1.541,1.541,0,0,0-.186-.731,1.2,1.2,0,0,0-.473-.516c-.359-.2-.688-.057-1.018.43l-1-1.363a1.78,1.78,0,0,1,.875-.731,1.589,1.589,0,0,1,1.2.273,3.525,3.525,0,0,1,1.277,1.348,3.746,3.746,0,0,1,.545,1.979,2.042,2.042,0,0,1-.229.975,3.064,3.064,0,0,1-.832.875l-1.033.818,2.223,1.277L43.816,80.3l-3.987-2.266.014-1.233,1.664-1.291A4.93,4.93,0,0,0,42.267,74.819Z" transform="translate(-36.444 -68.565)" fill="url(#g)"></path></g><path d="M34.285,64.967c-2.51-1.449-4.575-.258-4.575,2.639a9.313,9.313,0,0,0,1.262,4.36v2.123a.288.288,0,0,0,.287.287h1.535a6.767,6.767,0,0,0,1.477,1.133c2.51,1.449,4.575.258,4.575-2.639A10.12,10.12,0,0,0,34.285,64.967Z" transform="translate(3.91 -29.338)" fill="url(#h)"></path></g><g transform="translate(144.046 143.253)"><path d="M160.885,131.12l-53.772-30.88a2.752,2.752,0,0,0-3.141.287l-2.754,2.338-.789,29.1a4.74,4.74,0,0,0,2.367,4.1l24.311,13.827,12.421,7.272,17.857,10.571h3.371a2.513,2.513,0,0,0,2.51-2.51V135.237A4.79,4.79,0,0,0,160.885,131.12Z" transform="translate(-100.43 -99.877)" fill="url(#i)"></path><path d="M100.43,104.079V131.3a4.74,4.74,0,0,0,2.367,4.1l21.371,12.349,2.539,9.28a2.237,2.237,0,0,0,3.17,1.406l6.712-3.428L156.3,166.672a2.672,2.672,0,0,0,4.03-2.295v-27.61a4.74,4.74,0,0,0-2.367-4.1L104.446,101.77A2.674,2.674,0,0,0,100.43,104.079Z" transform="translate(-100.43 -99.213)" fill="#f6f8fb"></path><g transform="translate(7.315 9.399)"><path d="M152.274,137.052,105.53,109.973l.029-3.543,46.715,26.979Z" transform="translate(-105.53 -106.43)" fill="#e5e9f4"></path></g><g transform="translate(7.315 18.664)"><path d="M152.274,143.354,105.53,116.418l.029-3.528,46.715,26.965Z" transform="translate(-105.53 -112.89)" fill="#e5e9f4"></path></g><g transform="translate(7.315 27.916)"><path d="M128.149,135.935,105.53,122.883l.029-3.543,22.59,13.052Z" transform="translate(-105.53 -119.34)" fill="#e5e9f4"></path></g></g><path d="M.631,1.061l-.172.229A2.355,2.355,0,0,0,0,2.7V32.7a4.45,4.45,0,0,0,1.994,3.457L40.246,58.175a2.6,2.6,0,0,0,1.692.316l.086-.014a2.539,2.539,0,0,0,2.123-2.5V25.545a4.426,4.426,0,0,0-2.008-3.457L4.03.344A2.611,2.611,0,0,0,.631,1.061Z" transform="translate(0 0)" fill="url(#j)"></path><path d="M2.008,1.009C.9.392,0,.908,0,2.171V32.219a4.45,4.45,0,0,0,1.994,3.457L40.3,57.807c1.1.631,1.994.115,1.994-1.147V26.367a4.426,4.426,0,0,0-2.008-3.457Z" transform="translate(0 0.325)" fill="#f6f8fb"></path><path d="M24.632,18.023c-1.893-1.09-3.442-.229-3.442,1.922a7.943,7.943,0,0,0,3.442,6.038c1.893,1.176,3.442.316,3.442-1.922A7.691,7.691,0,0,0,24.632,18.023Z" transform="translate(9.203 7.622)" fill="#ec8c22"></path><path d="M25.688,27.493l-4.532,2.9-8-16.81L0,21.167v5.479A4.45,4.45,0,0,0,1.994,30.1L40.3,52.234c1.1.631,1.994.115,1.994-1.147V46.21l-8.649-4.991Z" transform="translate(0 5.898)" fill="#2a3c87"></path><path d="M152.082,90.808l18.072,10.4V71.086a6.464,6.464,0,0,0-2.9-5.034L149.73,55.94V86.734A5.227,5.227,0,0,0,152.082,90.808Z" transform="translate(65.026 24.294)" fill="#231f20" opacity="0.2"></path><g transform="translate(218.285 77.529)"><path d="M152.921,55.311l-.186.258a2.785,2.785,0,0,0-.545,1.664V92.5a5.226,5.226,0,0,0,2.352,4.073l44.965,25.875a3.017,3.017,0,0,0,1.994.359l.1-.014a2.987,2.987,0,0,0,2.5-2.94V84.068a5.2,5.2,0,0,0-2.352-4.059L156.938,54.45A3.1,3.1,0,0,0,152.921,55.311Z" transform="translate(-152.19 -54.054)" fill="url(#k)"></path><path d="M154.542,55.246c-1.291-.746-2.352-.129-2.352,1.363V91.921a5.227,5.227,0,0,0,2.352,4.073l45.022,25.989c1.291.746,2.352.129,2.352-1.363V85.051a5.2,5.2,0,0,0-2.352-4.059Z" transform="translate(-152.19 -53.674)" fill="#f6f8fb"></path><path d="M180.537,81.879c-.33-4.317-2.9-8.634-5.737-9.638a2.853,2.853,0,0,0-3.485,1.033,8.113,8.113,0,0,0-3.844-3.657c-2.84-1.018-4.877,1.649-4.561,5.967a14.14,14.14,0,0,0,1.85,5.924l7.516,13.726,7.358-8.649c.072-.115.258-.445.258-.445A8.157,8.157,0,0,0,180.537,81.879Z" transform="translate(-147.549 -47.389)" fill="#ec8c22"></path></g><g transform="translate(84.135 113.368)"><path d="M103.372,118.941c0-13.568-9.61-30.22-21.371-37-5.465-3.155-10.47-3.643-14.257-1.893h0l-.029.014a10.844,10.844,0,0,0-1.535.875L62.71,82.912l.516,1.1a18.725,18.725,0,0,0-2.6,10.255c0,6.569,2.252,13.855,5.909,20.41v9.925a1.362,1.362,0,0,0,1.363,1.363h7.2a35.421,35.421,0,0,0,6.9,5.321,21.571,21.571,0,0,0,7.128,2.7l.072.674,2.854-.488a11.885,11.885,0,0,0,2.9-.488h.014C100.073,132.079,103.372,126.887,103.372,118.941Z" transform="translate(-57.804 -79.041)" fill="url(#l)"></path><path d="M79.586,83c-11.5-6.641-20.926-1.2-20.926,12.077,0,6.426,2.209,13.568,5.795,19.98v9.724a1.341,1.341,0,0,0,1.334,1.334h7.042a34.487,34.487,0,0,0,6.756,5.206c11.5,6.641,20.926,1.2,20.926-12.077S91.089,89.653,79.586,83Z" transform="translate(-58.66 -78.554)" fill="#f2f4fa"></path><path d="M77.644,86.64c-8.778-5.264-15.964-.961-15.964,9.581s7.186,23.465,15.964,28.743,15.964.961,15.964-9.581S86.422,91.9,77.644,86.64Z" transform="translate(-57.348 -76.717)" fill="#ec8c22"></path><path d="M66.862,95.37c-1.061-.617-1.922-.115-1.922,1.119a4.288,4.288,0,0,0,1.922,3.342c1.061.617,1.922.115,1.922-1.119A4.244,4.244,0,0,0,66.862,95.37Z" transform="translate(-55.933 -72.065)" fill="#48486a"></path><path d="M73.092,98.83c-1.061-.617-1.922-.115-1.922,1.119a4.288,4.288,0,0,0,1.922,3.342c1.061.617,1.922.115,1.922-1.119A4.266,4.266,0,0,0,73.092,98.83Z" transform="translate(-53.227 -70.562)" fill="#48486a"></path><path d="M79.492,102.3c-1.061-.617-1.922-.115-1.922,1.119a4.288,4.288,0,0,0,1.922,3.342c1.061.617,1.922.115,1.922-1.119A4.244,4.244,0,0,0,79.492,102.3Z" transform="translate(-50.448 -69.055)" fill="#48486a"></path></g><g transform="translate(282.44 113.397)"><path d="M241.632,118.976c0-13.568-9.61-30.22-21.371-37.019C214.8,78.8,209.791,78.314,206,80.063h0l-.029.014a9.6,9.6,0,0,0-1.535.875l-3.471,1.979.516,1.1a18.6,18.6,0,0,0-2.6,10.255c0,6.569,2.252,13.855,5.909,20.41v9.925a1.362,1.362,0,0,0,1.363,1.363h7.2a35.421,35.421,0,0,0,6.9,5.321,21.572,21.572,0,0,0,7.128,2.7l.072.674,2.854-.488a11.885,11.885,0,0,0,2.9-.488h.014C238.333,132.114,241.632,126.922,241.632,118.976Z" transform="translate(-196.064 -79.061)" fill="url(#m)"></path><path d="M217.846,83.038c-11.5-6.641-20.926-1.2-20.926,12.077,0,6.426,2.209,13.568,5.795,19.98v9.724a1.341,1.341,0,0,0,1.334,1.334h7.042a34.487,34.487,0,0,0,6.756,5.206c11.5,6.641,20.926,1.2,20.926-12.077S229.364,89.679,217.846,83.038Z" transform="translate(-196.92 -78.565)" fill="#f2f4fa"></path><path d="M215.9,86.67c-8.778-5.264-15.964-.961-15.964,9.581s7.186,23.465,15.964,28.743,15.964.961,15.964-9.581S224.682,91.934,215.9,86.67Z" transform="translate(-195.608 -76.733)" fill="#f6bd36"></path><path d="M210.134,92.3v12.78a4.785,4.785,0,0,0-1.879-1.664c-1.42-.631-2.438.244-2.281,1.951a5.621,5.621,0,0,0,2.9,4.231c1.391.617,2.4-.2,2.281-1.85V96.388l5.608,4.045v9.423a4.862,4.862,0,0,0-1.893-1.678c-1.42-.631-2.438.244-2.281,1.951a5.621,5.621,0,0,0,2.9,4.231c1.348.6,2.338-.158,2.295-1.692V97.822Z" transform="translate(-192.995 -73.312)" fill="#48486a"></path></g></g></g></svg>